<svg id="Layer_1" data-name="Layer 1" xmlns="http://www.w3.org/2000/svg" width="100mm" height="100mm" viewBox="0 0 283.465 283.465">
  <g>
    <g>
      <g>
        <path d="M78.827,96.514l8.35,48.444-5.963,1.034L79.746,137.6l-1.417-8.082L74.46,107.329l-1.009-5.81-.4-2.26-.306-1.787v-.013l6.065-.945Z" fill="#f2e9e4"/>
        <path d="M79.286,88.2c.383,2.2-.472,8.312-.472,8.312l-6.065.945A33.191,33.191,0,0,1,69.6,90.692c-.626-2.516-.613-7.214,3.243-7.878S78.9,86.006,79.286,88.2Z" fill="#bb775c"/>
      </g>
      <g>
        <polyline points="72.749 97.459 78.814 96.514 78.827 96.514 87.177 144.958 81.214 145.992 79.746 137.603 78.329 129.521 74.46 107.329 73.451 101.519 73.055 99.259 72.749 97.472" fill="none" stroke="#010101" stroke-linecap="round" stroke-linejoin="round" stroke-width="2"/>
        <path d="M72.749,97.472v-.013A33.191,33.191,0,0,1,69.6,90.692c-.626-2.516-.613-7.214,3.243-7.878S78.9,86.006,79.286,88.2s-.472,8.312-.472,8.312" fill="none" stroke="#010101" stroke-linecap="round" stroke-linejoin="round" stroke-width="2"/>
      </g>
    </g>
    <g>
      <g>
        <path d="M98.5,91.642l-5.811,48.813-6.011-.709.985-8.46.947-8.151,2.62-22.373.69-5.856.266-2.279.216-1.8,0-.012,6.083.824Z" fill="#f2e9e4"/>
        <path d="M101.315,83.806c-.259,2.214-2.823,7.832-2.823,7.832l-6.083-.824a33.3,33.3,0,0,1-1.093-7.386c.118-2.589,1.47-7.089,5.356-6.626C100.573,77.257,101.574,81.592,101.315,83.806Z" fill="#bb775c"/>
      </g>
      <g>
        <polyline points="92.409 90.814 98.492 91.638 98.504 91.642 92.693 140.455 86.682 139.746 87.667 131.286 88.614 123.135 91.234 100.762 91.924 94.906 92.19 92.627 92.406 90.826" fill="none" stroke="#010101" stroke-linecap="round" stroke-linejoin="round" stroke-width="2"/>
        <path d="M92.406,90.826l0-.012a33.3,33.3,0,0,1-1.093-7.386c.118-2.589,1.47-7.089,5.356-6.626,3.9.455,4.9,4.79,4.643,7s-2.823,7.832-2.823,7.832" fill="none" stroke="#010101" stroke-linecap="round" stroke-linejoin="round" stroke-width="2"/>
      </g>
    </g>
    <g>
      <g>
        <path d="M112.427,104.129,98.592,151.3l-5.809-1.7,2.376-8.178,2.286-7.881,6.3-21.627,1.652-5.661.64-2.2.512-1.74.006-.011,5.861,1.822Z" fill="#f2e9e4"/>
        <path d="M116.5,96.868c-.624,2.141-4.085,7.255-4.085,7.255l-5.861-1.822a33.257,33.257,0,0,1,.148-7.465c.546-2.534,2.627-6.747,6.381-5.645C116.855,90.287,117.123,94.728,116.5,96.868Z" fill="#bb775c"/>
      </g>
      <g>
        <polyline points="106.554 102.301 112.415 104.123 112.427 104.129 98.592 151.3 92.783 149.602 95.159 141.424 97.445 133.543 103.744 111.916 105.396 106.255 106.036 104.052 106.548 102.312" fill="none" stroke="#010101" stroke-linecap="round" stroke-linejoin="round" stroke-width="2"/>
        <path d="M106.548,102.312l.006-.011a33.257,33.257,0,0,1,.148-7.465c.546-2.534,2.627-6.747,6.381-5.645,3.772,1.1,4.04,5.537,3.417,7.677s-4.085,7.255-4.085,7.255" fill="none" stroke="#010101" stroke-linecap="round" stroke-linejoin="round" stroke-width="2"/>
      </g>
    </g>
    <g>
      <path d="M185.449,231.2a40.817,40.817,0,0,0-.726,5.728c-.25,7.109,54.8,13.146,64.874,12.912l-1.869-98.3-.069-3.636c-4.808.348-8.848.6-11.563.733-14.859.753-43.345,5.168-47.575,6.64,0,0-.166,3.641-.362,9.123a5.771,5.771,0,0,1-.01.578c-.229,9.335-.47,23.678.231,34.686.856,13.508-1.52,23.612-2.856,30.977C185.506,230.838,185.466,231.01,185.449,231.2Z" fill="#eda0aa"/>
      <path d="M67.43,241.536c-1.557,3.667-2.2,8.11.68,12.142,6.311,8.89,12.436,8,19.549,5.043,2.229-.92,5.52-2.288,9.149-3.9,7.958-3.554,17.412-8.313,20.2-12.3,4.062-5.812,5.085-10.561,2.4-13.313-1.266-1.3-5.533-1.757-9.687-1.871-7.984,6.679-24.659,13.181-33.855,14.64A22.348,22.348,0,0,1,67.43,241.536Z" fill="#fbd0a3"/>
      <path d="M39.607,175c-9.62,7.245-15.154,22.352-.3,32.727a60.223,60.223,0,0,0,8.571,5.08c11.487,5.367,17.542,1.892,25.1,2.219,9.231.381,27.3-10.6,27.3-10.6a12.883,12.883,0,0,0,3.666-3.023c2.951-3.5,4.475-8.9,3.041-15.637-1.151-5.393-7.37-8.356-12.278-9.868-5.231,4.037-20.015,16.6-32.892,12.417C52.494,185.3,44.4,180.405,39.607,175Z" fill="#fbd0a3"/>
      <path d="M47.88,212.8c-.49,5.745-.655,12.81,1,16.481,2.278,4.985,10.364,10.439,18.552,12.252a22.348,22.348,0,0,0,8.44.439c9.2-1.459,25.871-7.961,33.855-14.64a20.01,20.01,0,0,0,2.332-2.27c6.493-7.421,7.56-10.993,3.467-16.886-2.244-3.232-7.4-5.445-11.578-6.778a12.883,12.883,0,0,1-3.666,3.023s-18.067,10.979-27.3,10.6C65.422,214.7,59.367,218.17,47.88,212.8Z" fill="#fbd0a3"/>
      <path d="M44.846,135.349c-7.579,3.2-10.271,21.489-9.762,30.21.188,3.164,1.811,6.364,4.523,9.437,4.79,5.409,12.887,10.306,22.21,13.317,12.877,4.185,27.661-8.38,32.892-12.417a12.346,12.346,0,0,1,1.52-1.1c2.16-1.2,2.759-11.33-3.913-15.59C77.6,170.807,56,169.484,51.184,162.557c-5.478-7.857,2.989-12.747,6.385-17.584A109.593,109.593,0,0,1,69.16,132.148C62.231,132.408,50.089,133.131,44.846,135.349Z" fill="#fbd0a3"/>
      <path d="M92.316,159.207c6.672,4.26,6.073,14.394,3.913,15.59a12.346,12.346,0,0,0-1.52,1.1c4.908,1.512,11.127,4.475,12.278,9.868,1.434,6.735-.09,12.135-3.041,15.637,4.177,1.333,9.334,3.546,11.578,6.778,4.093,5.893,3.026,9.465-3.467,16.886a20.01,20.01,0,0,1-2.332,2.27c4.154.114,8.421.568,9.687,1.871,2.685,2.752,1.662,7.5-2.4,13.313-2.792,3.991-12.246,8.75-20.2,12.3,2.281.663,4.991,1.361,8.149,2.028,17.6,3.668,33.455-6.435,39.148-9.8,5.692-3.383,23.406-17.2,23.406-17.2l17.938,1.35c.017-.193.057-.365.075-.558,1.336-7.365,3.712-17.469,2.856-30.977-.7-11.008-.46-25.351-.231-34.686-7.489.078-15.639.255-18.4-.7-1.395-6.95-7.114-13.967-14.41-20.634-11.325-10.378-35.045-20.927-42.456-23.525s-29.115,6.16-33.054,4.973c-1.872-.543-6.238,2.836-10.673,7.051a109.593,109.593,0,0,0-11.591,12.825c-3.4,4.837-11.863,9.727-6.385,17.584C56,169.484,77.6,170.807,92.316,159.207Z" fill="#fbd0a3"/>
      <path d="M188.38,199.668c-.7-11.008-.461-25.351-.231-34.686a5.771,5.771,0,0,0,.01-.578c.2-5.482.362-9.123.362-9.123,4.231-1.472,32.716-5.887,47.575-6.64,2.715-.137,6.755-.385,11.564-.733l.069,3.636,1.477,77.708c-20.533-3.612-41.2-6.559-61.67-10.138A93.351,93.351,0,0,0,188.38,199.668Z" fill="#eda0aa"/>
      <path d="M185.524,230.645c.593-3.272,1.383-7.12,2.012-11.531,20.466,3.579,41.137,6.526,61.67,10.138l.391,20.591c-10.075.234-65.125-5.8-64.874-12.912a40.835,40.835,0,0,1,.726-5.728C185.466,231.01,185.506,230.838,185.524,230.645Z" fill="#ea5d71"/>
      <path d="M67.43,241.536c-1.557,3.667-2.2,8.11.68,12.142,6.311,8.89,12.436,8,19.549,5.043,2.229-.92,5.52-2.288,9.149-3.9,7.958-3.554,17.412-8.313,20.2-12.3,4.062-5.812,5.085-10.561,2.4-13.313-1.266-1.3-5.533-1.757-9.687-1.871-7.984,6.679-24.659,13.181-33.855,14.64A22.348,22.348,0,0,1,67.43,241.536Z" fill="#fbd0a3"/>
      <path d="M39.607,175c-9.62,7.245-15.154,22.352-.3,32.727a60.223,60.223,0,0,0,8.571,5.08c11.487,5.367,17.542,1.892,25.1,2.219,9.231.381,27.3-10.6,27.3-10.6a12.883,12.883,0,0,0,3.666-3.023c2.951-3.5,4.475-8.9,3.041-15.637-1.151-5.393-7.37-8.356-12.278-9.868-5.231,4.037-20.015,16.6-32.892,12.417C52.494,185.3,44.4,180.405,39.607,175Z" fill="#fbd0a3"/>
      <path d="M47.88,212.8c-.49,5.745-.655,12.81,1,16.481,2.278,4.985,10.364,10.439,18.552,12.252a22.348,22.348,0,0,0,8.44.439c9.2-1.459,25.871-7.961,33.855-14.64a20.01,20.01,0,0,0,2.332-2.27c6.493-7.421,7.56-10.993,3.467-16.886-2.244-3.232-7.4-5.445-11.578-6.778a12.883,12.883,0,0,1-3.666,3.023s-18.067,10.979-27.3,10.6C65.422,214.7,59.367,218.17,47.88,212.8Z" fill="#fbd0a3"/>
      <path d="M44.846,135.349c-7.579,3.2-10.271,21.489-9.762,30.21.188,3.164,1.811,6.364,4.523,9.437,4.79,5.409,12.887,10.306,22.21,13.317,12.877,4.185,27.661-8.38,32.892-12.417a12.346,12.346,0,0,1,1.52-1.1c2.16-1.2,2.759-11.33-3.913-15.59C77.6,170.807,56,169.484,51.184,162.557c-5.478-7.857,2.989-12.747,6.385-17.584A109.593,109.593,0,0,1,69.16,132.148C62.231,132.408,50.089,133.131,44.846,135.349Z" fill="#fbd0a3"/>
      <path d="M57.569,144.973A109.593,109.593,0,0,1,69.16,132.148c4.435-4.215,8.8-7.594,10.673-7.051,3.939,1.187,25.644-7.571,33.054-4.973s31.131,13.147,42.456,23.525c7.3,6.667,13.015,13.684,14.409,20.634,2.758.954,10.909.777,18.4.7-.23,9.335-.47,23.678.231,34.686a91.842,91.842,0,0,1-.5,16.841c-12.554-.662-24.507-1.587-33.974,3.374a200.136,200.136,0,0,1-34.1,17.709c1.515-3.552,1.485-6.464-.39-8.386-1.266-1.3-5.533-1.757-9.687-1.871a20.089,20.089,0,0,0,2.332-2.27c6.493-7.421,7.56-10.993,3.467-16.886-2.244-3.232-7.4-5.445-11.578-6.778,2.951-3.5,4.475-8.9,3.041-15.637-.733-3.436-3.527-5.879-6.726-7.595,8.665-7,15.243-16.965,20.252-26.132-7.589,5.92-18.764,4.994-27.1,7.98a10.474,10.474,0,0,0-1.095-.81C77.6,170.807,56,169.484,51.183,162.557,45.706,154.7,54.173,149.809,57.569,144.973Z" fill="#fbd0a3"/>
      <path d="M100.261,178.169a31.608,31.608,0,0,0-5.552-2.273,12.346,12.346,0,0,1,1.52-1.1c2.033-1.126,2.678-10.169-2.819-14.78,8.339-2.986,19.514-2.06,27.1-7.98C115.5,161.2,108.926,171.165,100.261,178.169Z" fill="#f7b985"/>
      <path d="M117.012,242.519a27.407,27.407,0,0,0,2.79-4.927,200.136,200.136,0,0,0,34.1-17.709c9.467-4.961,21.42-4.036,33.974-3.374-.657,5.538-1.646,10.234-2.353,14.136-.018.193-.058.365-.075.558l-17.938-1.349s-17.713,13.818-23.406,17.2c-5.692,3.361-21.55,13.464-39.148,9.8-3.158-.667-5.868-1.365-8.149-2.028C104.765,251.269,114.219,246.51,117.012,242.519Z" fill="#f7b985"/>
      <path d="M247.659,147.908c-4.808.348-8.848.6-11.563.733-14.859.753-43.345,5.168-47.575,6.64,0,0-.166,3.641-.362,9.123a5.771,5.771,0,0,1-.01.578c-.229,9.335-.47,23.678.231,34.686.856,13.508-1.52,23.612-2.856,30.977-.018.193-.058.365-.075.558a40.817,40.817,0,0,0-.726,5.728c-.25,7.109,54.8,13.146,64.874,12.912" fill="none" stroke="#010101" stroke-linecap="round" stroke-linejoin="round" stroke-width="2"/>
      <path d="M185.449,231.2l-17.938-1.35s-17.714,13.819-23.406,17.2c-5.693,3.361-21.551,13.464-39.148,9.8-3.158-.667-5.868-1.365-8.149-2.028" fill="none" stroke="#010101" stroke-linecap="round" stroke-linejoin="round" stroke-width="2"/>
      <path d="M188.149,164.982c-7.489.078-15.639.255-18.4-.7" fill="none" stroke="#010101" stroke-linecap="round" stroke-linejoin="round" stroke-width="2"/>
      <path d="M97.8,153.817a33.993,33.993,0,0,1-4.43,4.514c-.337.306-.695.591-1.053.876C77.6,170.807,56,169.484,51.184,162.557c-5.478-7.857,2.989-12.747,6.385-17.584A109.593,109.593,0,0,1,69.16,132.148c4.435-4.215,8.8-7.594,10.673-7.051,3.939,1.187,25.643-7.571,33.054-4.973s31.131,13.147,42.456,23.525c7.3,6.667,13.015,13.684,14.41,20.634a15.1,15.1,0,0,1-2.115,11.468c-6.627,10.484-38.162,14.358-38.162,14.358" fill="none" stroke="#010101" stroke-linecap="round" stroke-linejoin="round" stroke-width="2"/>
      <path d="M123.186,149.675c-3.074,3.76-6.946,4.968-16.168,8.439-4.525,1.734-9.629,1.189-13.649.217" fill="none" stroke="#010101" stroke-linecap="round" stroke-linejoin="round" stroke-width="2"/>
      <path d="M92.316,159.207c6.672,4.26,6.073,14.394,3.913,15.59a12.346,12.346,0,0,0-1.52,1.1c-5.231,4.037-20.015,16.6-32.892,12.417C52.494,185.3,44.4,180.405,39.607,175c-2.712-3.073-4.335-6.273-4.523-9.437-.509-8.721,2.183-27.006,9.762-30.21,5.243-2.218,17.385-2.941,24.314-3.2" fill="none" stroke="#010101" stroke-linecap="round" stroke-linejoin="round" stroke-width="2"/>
      <path d="M39.607,175c-9.62,7.245-15.154,22.352-.3,32.727a60.223,60.223,0,0,0,8.571,5.08c11.487,5.367,17.542,1.892,25.1,2.219,9.231.381,27.3-10.6,27.3-10.6a12.883,12.883,0,0,0,3.666-3.023c2.951-3.5,4.475-8.9,3.041-15.637-1.151-5.393-7.37-8.356-12.278-9.868" fill="none" stroke="#010101" stroke-linecap="round" stroke-linejoin="round" stroke-width="2"/>
      <path d="M103.946,201.4c4.177,1.333,9.334,3.546,11.578,6.778,4.093,5.893,3.026,9.465-3.467,16.886a20.01,20.01,0,0,1-2.332,2.27c-7.984,6.679-24.659,13.181-33.855,14.64a22.348,22.348,0,0,1-8.44-.439c-8.188-1.813-16.274-7.267-18.552-12.252-1.653-3.671-1.488-10.736-1-16.481" fill="none" stroke="#010101" stroke-linecap="round" stroke-linejoin="round" stroke-width="2"/>
      <path d="M67.43,241.536c-1.557,3.667-2.2,8.11.68,12.142,6.311,8.89,12.436,8,19.549,5.043,2.229-.92,5.52-2.288,9.149-3.9,7.958-3.554,17.412-8.313,20.2-12.3,4.062-5.812,5.085-10.561,2.4-13.313-1.266-1.3-5.533-1.757-9.687-1.871" fill="none" stroke="#010101" stroke-linecap="round" stroke-linejoin="round" stroke-width="2"/>
    </g>
  </g>
</svg>
